<svg xmlns="http://www.w3.org/2000/svg" viewBox="0 0 1400 800"><defs><style>.cls-1{fill:#8dc63f;}.cls-2{fill:#a34b31;}.cls-3{fill:#fff;}.cls-4{fill:#231f20;}</style></defs><g id="Layer_1" data-name="Layer 1"><rect class="cls-1" width="1400" height="800"/><rect class="cls-2" x="112.61" y="67.52" width="1155.43" height="108.77"/><rect class="cls-2" x="112.61" y="67.52" width="98.91" height="636.96"/><rect class="cls-2" x="1162.61" y="67.52" width="105.43" height="636.96"/><rect class="cls-3" x="211.52" y="67.52" width="27.19" height="108.77"/><rect class="cls-4" x="211.52" y="67.52" width="13.6" height="13.6"/><rect class="cls-4" x="225.12" y="81.12" width="13.6" height="13.6"/><rect class="cls-4" x="211.52" y="94.72" width="13.6" height="13.6"/><rect class="cls-4" x="225.12" y="108.31" width="13.6" height="13.6"/><rect class="cls-4" x="211.52" y="121.91" width="13.6" height="13.6"/><rect class="cls-4" x="225.12" y="135.51" width="13.6" height="13.6"/><rect class="cls-4" x="211.52" y="149.1" width="13.6" height="13.6"/><rect class="cls-4" x="225.12" y="162.7" width="13.6" height="13.6"/><rect class="cls-2" x="112.61" y="595.7" width="1155.43" height="108.77"/></g><g id="Layer_2" data-name="Layer 2"><rect class="cls-4" x="614.56" y="257.8" width="13.6" height="13.6"/><rect class="cls-4" x="614.56" y="271.4" width="13.6" height="13.6"/><rect class="cls-4" x="614.56" y="284.99" width="13.6" height="13.6"/><rect class="cls-4" x="614.56" y="298.59" width="13.6" height="13.6"/><rect class="cls-4" x="614.56" y="312.19" width="13.6" height="13.6"/><rect class="cls-4" x="628.15" y="257.8" width="13.6" height="13.6"/><rect class="cls-4" x="641.38" y="257.8" width="13.6" height="13.6"/><rect class="cls-4" x="641.38" y="271.4" width="13.6" height="13.6"/><rect class="cls-4" x="641.38" y="284.99" width="13.6" height="13.6"/><rect class="cls-4" x="628.15" y="284.7" width="13.6" height="13.6"/><rect class="cls-4" x="641.38" y="298.59" width="13.6" height="13.6"/><rect class="cls-4" x="641.38" y="312.19" width="13.6" height="13.6"/><rect class="cls-4" x="669.64" y="257.8" width="13.6" height="13.6"/><rect class="cls-4" x="669.64" y="271.4" width="13.6" height="13.6"/><rect class="cls-4" x="669.64" y="284.99" width="13.6" height="13.6"/><rect class="cls-4" x="669.64" y="298.59" width="13.6" height="13.6"/><rect class="cls-4" x="669.64" y="312.19" width="13.6" height="13.6"/><rect class="cls-4" x="696.46" y="257.8" width="13.6" height="13.6"/><rect class="cls-4" x="696.46" y="271.4" width="13.6" height="13.6"/><rect class="cls-4" x="696.46" y="284.99" width="13.6" height="13.6"/><rect class="cls-4" x="696.46" y="298.59" width="13.6" height="13.6"/><rect class="cls-4" x="696.46" y="312.19" width="13.6" height="13.6"/><rect class="cls-4" x="683.24" y="312.19" width="13.6" height="13.6"/><rect class="cls-4" x="725.68" y="257.5" width="13.6" height="13.6"/><rect class="cls-4" x="725.68" y="271.1" width="13.6" height="13.6"/><rect class="cls-4" x="725.68" y="284.7" width="13.6" height="13.6"/><rect class="cls-4" x="725.68" y="298.29" width="13.6" height="13.6"/><rect class="cls-4" x="725.68" y="311.89" width="13.6" height="13.6"/><rect class="cls-4" x="739.27" y="257.5" width="13.6" height="13.6"/><rect class="cls-4" x="752.5" y="257.5" width="13.6" height="13.6"/><rect class="cls-4" x="752.5" y="271.1" width="13.6" height="13.6"/><rect class="cls-4" x="752.5" y="284.7" width="13.6" height="13.6"/><rect class="cls-4" x="752.5" y="298.29" width="13.6" height="13.6"/><rect class="cls-4" x="752.5" y="311.89" width="13.6" height="13.6"/><rect class="cls-4" x="669.93" y="338.71" width="13.6" height="13.6"/><rect class="cls-4" x="669.93" y="352.31" width="13.6" height="13.6"/><rect class="cls-4" x="669.93" y="365.9" width="13.6" height="13.6"/><rect class="cls-4" x="669.93" y="379.5" width="13.6" height="13.6"/><rect class="cls-4" x="669.93" y="393.1" width="13.6" height="13.6"/><rect class="cls-4" x="683.53" y="338.71" width="13.6" height="13.6"/><rect class="cls-4" x="696.75" y="338.71" width="13.6" height="13.6"/><rect class="cls-4" x="696.75" y="352.31" width="13.6" height="13.6"/><rect class="cls-4" x="696.75" y="365.9" width="13.6" height="13.6"/><rect class="cls-4" x="683.53" y="365.6" width="13.6" height="13.6"/><rect class="cls-4" x="696.75" y="379.5" width="13.6" height="13.6"/><rect class="cls-4" x="696.75" y="393.1" width="13.6" height="13.6"/><rect class="cls-4" x="333.08" y="426.75" width="13.6" height="13.6"/><rect class="cls-4" x="333.08" y="440.35" width="13.6" height="13.6"/><rect class="cls-4" x="333.08" y="453.95" width="13.6" height="13.6"/><rect class="cls-4" x="333.08" y="467.54" width="13.6" height="13.6"/><rect class="cls-4" x="333.08" y="481.14" width="13.6" height="13.6"/><rect class="cls-4" x="359.9" y="426.75" width="13.6" height="13.6"/><rect class="cls-4" x="359.9" y="440.35" width="13.6" height="13.6"/><rect class="cls-4" x="359.9" y="453.95" width="13.6" height="13.6"/><rect class="cls-4" x="346.68" y="453.65" width="13.6" height="13.6"/><rect class="cls-4" x="359.9" y="467.54" width="13.6" height="13.6"/><rect class="cls-4" x="359.9" y="481.14" width="13.6" height="13.6"/><rect class="cls-4" x="388.16" y="426.75" width="13.6" height="13.6"/><rect class="cls-4" x="388.16" y="440.35" width="13.6" height="13.6"/><rect class="cls-4" x="388.16" y="453.95" width="13.6" height="13.6"/><rect class="cls-4" x="388.16" y="467.54" width="13.6" height="13.6"/><rect class="cls-4" x="388.16" y="481.14" width="13.6" height="13.6"/><rect class="cls-4" x="401.76" y="426.75" width="13.6" height="13.6"/><rect class="cls-4" x="414.99" y="426.75" width="13.6" height="13.6"/><rect class="cls-4" x="414.99" y="440.35" width="13.6" height="13.6"/><rect class="cls-4" x="414.99" y="453.95" width="13.6" height="13.6"/><rect class="cls-4" x="401.76" y="453.65" width="13.6" height="13.6"/><rect class="cls-4" x="414.99" y="467.54" width="13.6" height="13.6"/><rect class="cls-4" x="414.99" y="481.14" width="13.6" height="13.6"/><rect class="cls-4" x="444.2" y="426.45" width="13.6" height="13.6"/><rect class="cls-4" x="444.2" y="440.05" width="13.6" height="13.6"/><rect class="cls-4" x="444.2" y="453.65" width="13.6" height="13.6"/><rect class="cls-4" x="444.2" y="467.24" width="13.6" height="13.6"/><rect class="cls-4" x="444.2" y="480.84" width="13.6" height="13.6"/><rect class="cls-4" x="471.02" y="480.84" width="13.6" height="13.6"/><rect class="cls-4" x="457.8" y="480.84" width="13.6" height="13.6"/><rect class="cls-4" x="500.84" y="426.9" width="13.6" height="13.6"/><rect class="cls-4" x="500.84" y="440.5" width="13.6" height="13.6"/><rect class="cls-4" x="500.84" y="454.09" width="13.6" height="13.6"/><rect class="cls-4" x="500.84" y="467.69" width="13.6" height="13.6"/><rect class="cls-4" x="500.84" y="481.29" width="13.6" height="13.6"/><rect class="cls-4" x="514.44" y="426.9" width="13.6" height="13.6"/><rect class="cls-4" x="527.67" y="426.9" width="13.6" height="13.6"/><rect class="cls-4" x="527.67" y="454.09" width="13.6" height="13.6"/><rect class="cls-4" x="514.44" y="453.8" width="13.6" height="13.6"/><rect class="cls-4" x="611.96" y="426.6" width="13.6" height="13.6"/><rect class="cls-4" x="611.96" y="440.2" width="13.6" height="13.6"/><rect class="cls-4" x="611.96" y="453.8" width="13.6" height="13.6"/><rect class="cls-4" x="611.96" y="467.39" width="13.6" height="13.6"/><rect class="cls-4" x="611.96" y="480.99" width="13.6" height="13.6"/><rect class="cls-4" x="638.79" y="426.6" width="13.6" height="13.6"/><rect class="cls-4" x="638.79" y="440.2" width="13.6" height="13.6"/><rect class="cls-4" x="638.79" y="453.8" width="13.6" height="13.6"/><rect class="cls-4" x="638.79" y="467.39" width="13.6" height="13.6"/><rect class="cls-4" x="638.79" y="480.99" width="13.6" height="13.6"/><rect class="cls-4" x="668" y="426.31" width="13.6" height="13.6"/><rect class="cls-4" x="668" y="439.9" width="13.6" height="13.6"/><rect class="cls-4" x="668" y="453.5" width="13.6" height="13.6"/><rect class="cls-4" x="668" y="467.1" width="13.6" height="13.6"/><rect class="cls-4" x="668" y="480.69" width="13.6" height="13.6"/><rect class="cls-4" x="681.6" y="426.31" width="13.6" height="13.6"/><rect class="cls-4" x="694.82" y="426.31" width="13.6" height="13.6"/><rect class="cls-4" x="694.82" y="439.9" width="13.6" height="13.6"/><rect class="cls-4" x="694.82" y="453.5" width="13.6" height="13.6"/><rect class="cls-4" x="681.6" y="453.2" width="13.6" height="13.6"/><rect class="cls-4" x="694.82" y="467.1" width="13.6" height="13.6"/><rect class="cls-4" x="694.82" y="480.69" width="13.6" height="13.6"/><rect class="cls-4" x="722.61" y="426.16" width="13.6" height="13.6"/><rect class="cls-4" x="722.61" y="439.75" width="13.6" height="13.6"/><rect class="cls-4" x="722.61" y="453.35" width="13.6" height="13.6"/><rect class="cls-4" x="722.61" y="466.95" width="13.6" height="13.6"/><rect class="cls-4" x="722.61" y="480.54" width="13.6" height="13.6"/><rect class="cls-4" x="736.21" y="426.16" width="13.6" height="13.6"/><rect class="cls-4" x="749.43" y="426.16" width="13.6" height="13.6"/><rect class="cls-4" x="749.43" y="439.75" width="13.6" height="13.6"/><rect class="cls-4" x="749.43" y="453.35" width="13.6" height="13.6"/><rect class="cls-4" x="736.21" y="453.05" width="13.6" height="13.6"/><rect class="cls-4" x="749.43" y="466.95" width="13.6" height="13.6"/><rect class="cls-4" x="749.43" y="480.54" width="13.6" height="13.6"/><rect class="cls-4" x="778.64" y="425.86" width="13.6" height="13.6"/><rect class="cls-4" x="778.64" y="439.46" width="13.6" height="13.6"/><rect class="cls-4" x="778.64" y="453.05" width="13.6" height="13.6"/><rect class="cls-4" x="778.64" y="466.65" width="13.6" height="13.6"/><rect class="cls-4" x="778.64" y="480.25" width="13.6" height="13.6"/><rect class="cls-4" x="792.24" y="425.86" width="13.6" height="13.6"/><rect class="cls-4" x="805.47" y="425.86" width="13.6" height="13.6"/><rect class="cls-4" x="805.47" y="439.46" width="13.6" height="13.6"/><rect class="cls-4" x="805.47" y="453.05" width="13.6" height="13.6"/><rect class="cls-4" x="792.24" y="452.75" width="13.6" height="13.6"/><rect class="cls-4" x="805.47" y="466.65" width="13.6" height="13.6"/><rect class="cls-4" x="805.47" y="480.25" width="13.6" height="13.6"/><rect class="cls-4" x="835.85" y="426.68" width="13.6" height="13.6"/><rect class="cls-4" x="849.45" y="440.27" width="13.6" height="13.6"/><rect class="cls-4" x="849.45" y="467.47" width="13.6" height="13.6"/><rect class="cls-4" x="849.45" y="426.68" width="13.6" height="13.6"/><rect class="cls-4" x="862.67" y="426.68" width="13.6" height="13.6"/><rect class="cls-4" x="849.45" y="453.87" width="13.6" height="13.6"/><rect class="cls-4" x="849.45" y="481.06" width="13.6" height="13.6"/><rect class="cls-4" x="891.89" y="426.38" width="13.6" height="13.6"/><rect class="cls-4" x="891.89" y="439.98" width="13.6" height="13.6"/><rect class="cls-4" x="891.89" y="453.57" width="13.6" height="13.6"/><rect class="cls-4" x="891.89" y="467.17" width="13.6" height="13.6"/><rect class="cls-4" x="891.89" y="480.77" width="13.6" height="13.6"/><rect class="cls-4" x="918.71" y="426.38" width="13.6" height="13.6"/><rect class="cls-4" x="918.71" y="439.98" width="13.6" height="13.6"/><rect class="cls-4" x="918.71" y="453.57" width="13.6" height="13.6"/><rect class="cls-4" x="905.48" y="453.28" width="13.6" height="13.6"/><rect class="cls-4" x="918.71" y="467.17" width="13.6" height="13.6"/><rect class="cls-4" x="918.71" y="480.77" width="13.6" height="13.6"/><rect class="cls-4" x="946.49" y="426.23" width="13.6" height="13.6"/><rect class="cls-4" x="946.49" y="439.83" width="13.6" height="13.6"/><rect class="cls-4" x="946.49" y="453.42" width="13.6" height="13.6"/><rect class="cls-4" x="946.49" y="467.02" width="13.6" height="13.6"/><rect class="cls-4" x="946.49" y="480.62" width="13.6" height="13.6"/><rect class="cls-4" x="960.09" y="426.23" width="13.6" height="13.6"/><rect class="cls-4" x="973.32" y="426.23" width="13.6" height="13.6"/><rect class="cls-4" x="973.32" y="439.83" width="13.6" height="13.6"/><rect class="cls-4" x="973.32" y="453.42" width="13.6" height="13.6"/><rect class="cls-4" x="973.32" y="467.02" width="13.6" height="13.6"/><rect class="cls-4" x="973.32" y="480.62" width="13.6" height="13.6"/><rect class="cls-4" x="960.09" y="480.62" width="13.6" height="13.6"/><rect class="cls-4" x="1002.53" y="425.93" width="13.6" height="13.6"/><rect class="cls-4" x="1002.53" y="439.53" width="13.6" height="13.6"/><rect class="cls-4" x="1002.53" y="453.13" width="13.6" height="13.6"/><rect class="cls-4" x="1002.53" y="466.72" width="13.6" height="13.6"/><rect class="cls-4" x="1002.53" y="480.32" width="13.6" height="13.6"/><rect class="cls-4" x="1016.13" y="425.93" width="13.6" height="13.6"/><rect class="cls-4" x="1029.35" y="425.93" width="13.6" height="13.6"/><rect class="cls-4" x="1029.35" y="439.53" width="13.6" height="13.6"/><rect class="cls-4" x="1029.35" y="453.13" width="13.6" height="13.6"/><rect class="cls-4" x="1029.35" y="466.72" width="13.6" height="13.6"/><rect class="cls-4" x="1029.35" y="480.32" width="13.6" height="13.6"/><rect class="cls-4" x="625.56" y="439.9" width="13.6" height="13.6"/><rect class="cls-4" x="563.02" y="454.17" width="13.6" height="13.6"/><rect class="cls-4" x="576.61" y="454.02" width="13.6" height="13.6"/></g></svg>